#N canvas 827 239 527 327 12;
#X obj 282 788 hv.tanh~;
#X obj 301 4946 r Level @hv_param 0 1 0.2;
#X obj 278 4983 *~ 0.2;
#X obj 282 121 adc~ 1;
#X obj 282 155 hv.filter~ lowpass 100 0.707;
#X obj 358 62 loadbang;
#X obj 358 90 samplerate~;
#X obj 358 121 / 4;
#X obj 282 217 hv.filter~ lowpass 3500 0.707;
#X obj 282 276 hv.filter~ highpass 25 0.707;
#X obj 278 4851 hv.filter~ lowpass 6000 0.707;
#X obj 278 4906 hv.filter~ highpass 100 0.707;
#X obj 278 4291 hv.filter~ lowpass 4000 0.707;
#X obj 278 4231 *~;
#X obj 612 4231 *~;
#X obj 575 1253 hv.lte~;
#X obj 602 1221 sig~ -0.98338;
#X obj 553 1289 *~;
#X obj 476 1221 sig~ -0.32623;
#X obj 846 1189 hv.gt~;
#X obj 836 1234 *~;
#X obj 870 1151 sig~ -0.98338;
#X obj 870 1283 hv.lte~;
#X obj 897 1253 sig~ -0.50698;
#X obj 836 1385 pow~ 3;
#X obj 940 1385 pow~ 2;
#X obj 836 1415 *~ 0.078101;
#X obj 940 1415 *~ 0.23041;
#X obj 836 1461 +~;
#X obj 836 1509 +~;
#X obj 836 1546 +~ -0.18261;
#X obj 836 1330 *~;
#X obj 1021 1382 *~ 0.2971;
#X obj 836 1621 hv.neq~;
#X obj 871 1582 sig~ -0.18261;
#X obj 783 1654 *~;
#X obj 1191 1189 hv.gt~;
#X obj 1181 1234 *~;
#X obj 1215 1283 hv.lte~;
#X obj 1181 1385 pow~ 3;
#X obj 1285 1385 pow~ 2;
#X obj 1181 1461 +~;
#X obj 1181 1509 +~;
#X obj 1181 1330 *~;
#X obj 1181 1621 hv.neq~;
#X obj 1128 1654 *~;
#X obj 1215 1151 sig~ -0.50698;
#X obj 1242 1253 sig~ -0.20759;
#X obj 1181 1415 *~ 0.42263;
#X obj 1285 1415 *~ 0.75441;
#X obj 1366 1382 *~ 0.56276;
#X obj 1181 1546 +~ -0.13772;
#X obj 1216 1582 sig~ -0.13772;
#X obj 1568 1189 hv.gt~;
#X obj 1558 1234 *~;
#X obj 1592 1283 hv.lte~;
#X obj 1558 1385 pow~ 3;
#X obj 1662 1385 pow~ 2;
#X obj 1558 1461 +~;
#X obj 1558 1509 +~;
#X obj 1558 1330 *~;
#X obj 1558 1621 hv.neq~;
#X obj 1505 1654 *~;
#X obj 1592 1151 sig~ -0.20759;
#X obj 1619 1253 sig~ -0.00212;
#X obj 1558 1415 *~ 0.92483;
#X obj 1743 1382 *~ 0.62768;
#X obj 1558 1546 +~ -0.13322;
#X obj 1593 1582 sig~ -0.13322;
#X obj 1662 1415 *~ 1.0672;
#X obj 1969 1181 hv.gt~;
#X obj 1959 1226 *~;
#X obj 1993 1275 hv.lte~;
#X obj 1959 1377 pow~ 3;
#X obj 2063 1377 pow~ 2;
#X obj 1959 1453 +~;
#X obj 1959 1501 +~;
#X obj 1959 1322 *~;
#X obj 1959 1613 hv.neq~;
#X obj 1906 1646 *~;
#X obj 1959 1538 +~ -0.13322;
#X obj 1994 1574 sig~ -0.13322;
#X obj 1993 1143 sig~ -0.00212;
#X obj 2020 1245 sig~ 0.20041;
#X obj 1959 1407 *~ -0.78522;
#X obj 2063 1407 *~ 1.0563;
#X obj 2144 1374 *~ 0.62766;
#X obj 2346 1181 hv.gt~;
#X obj 2336 1226 *~;
#X obj 2370 1275 hv.lte~;
#X obj 2336 1377 pow~ 3;
#X obj 2440 1377 pow~ 2;
#X obj 2336 1453 +~;
#X obj 2336 1501 +~;
#X obj 2336 1322 *~;
#X obj 2336 1613 hv.neq~;
#X obj 2283 1646 *~;
#X obj 2370 1143 sig~ 0.20041;
#X obj 2397 1245 sig~ 0.50062;
#X obj 2440 1407 *~ 1.2369;
#X obj 2521 1374 *~ 0.59147;
#X obj 2336 1538 +~ -0.13081;
#X obj 2371 1574 sig~ -0.13081;
#X obj 2685 1181 hv.gt~;
#X obj 2675 1226 *~;
#X obj 2709 1275 hv.lte~;
#X obj 2675 1377 pow~ 3;
#X obj 2779 1377 pow~ 2;
#X obj 2675 1453 +~;
#X obj 2675 1501 +~;
#X obj 2675 1322 *~;
#X obj 2675 1613 hv.neq~;
#X obj 2622 1646 *~;
#X obj 2709 1143 sig~ 0.50062;
#X obj 2736 1245 sig~ 0.89961;
#X obj 2779 1407 *~ -0.8872;
#X obj 2860 1374 *~ 1.6548;
#X obj 2675 1538 +~ -0.30825;
#X obj 2710 1574 sig~ -0.30825;
#X obj 3023 1287 *~;
#X obj 3023 1132 sig~ 0.70177;
#X obj 3045 1251 hv.gt~;
#X obj 3072 1219 sig~ 0.89961;
#X obj 2336 1407 *~ -1.0856;
#X obj 2675 1407 *~ 0.32873;
#X obj 1993 968 *~;
#X obj 567 1956 hv.lte~;
#X obj 594 1924 sig~ -0.98338;
#X obj 545 1992 *~;
#X obj 462 1924 sig~ -0.32623;
#X obj 838 1892 hv.gt~;
#X obj 828 1937 *~;
#X obj 862 1854 sig~ -0.98338;
#X obj 862 1986 hv.lte~;
#X obj 889 1956 sig~ -0.50698;
#X obj 828 2088 pow~ 3;
#X obj 932 2088 pow~ 2;
#X obj 828 2118 *~ 0.078101;
#X obj 932 2118 *~ 0.23041;
#X obj 828 2164 +~;
#X obj 828 2212 +~;
#X obj 828 2249 +~ -0.18261;
#X obj 828 2033 *~;
#X obj 1013 2085 *~ 0.2971;
#X obj 828 2324 hv.neq~;
#X obj 863 2285 sig~ -0.18261;
#X obj 775 2357 *~;
#X obj 1183 1892 hv.gt~;
#X obj 1173 1937 *~;
#X obj 1207 1986 hv.lte~;
#X obj 1173 2088 pow~ 3;
#X obj 1277 2088 pow~ 2;
#X obj 1173 2164 +~;
#X obj 1173 2212 +~;
#X obj 1173 2033 *~;
#X obj 1173 2324 hv.neq~;
#X obj 1120 2357 *~;
#X obj 1207 1854 sig~ -0.50698;
#X obj 1234 1956 sig~ -0.20759;
#X obj 1173 2118 *~ 0.42263;
#X obj 1277 2118 *~ 0.75441;
#X obj 1358 2085 *~ 0.56276;
#X obj 1173 2249 +~ -0.13772;
#X obj 1208 2285 sig~ -0.13772;
#X obj 1560 1892 hv.gt~;
#X obj 1550 1937 *~;
#X obj 1584 1986 hv.lte~;
#X obj 1550 2088 pow~ 3;
#X obj 1654 2088 pow~ 2;
#X obj 1550 2164 +~;
#X obj 1550 2212 +~;
#X obj 1550 2033 *~;
#X obj 1550 2324 hv.neq~;
#X obj 1497 2357 *~;
#X obj 1584 1854 sig~ -0.20759;
#X obj 1611 1956 sig~ -0.00212;
#X obj 1550 2118 *~ 0.92483;
#X obj 1735 2085 *~ 0.62768;
#X obj 1550 2249 +~ -0.13322;
#X obj 1585 2285 sig~ -0.13322;
#X obj 1654 2118 *~ 1.0672;
#X obj 1961 1884 hv.gt~;
#X obj 1951 1929 *~;
#X obj 1985 1978 hv.lte~;
#X obj 1951 2080 pow~ 3;
#X obj 2055 2080 pow~ 2;
#X obj 1951 2156 +~;
#X obj 1951 2204 +~;
#X obj 1951 2025 *~;
#X obj 1951 2316 hv.neq~;
#X obj 1898 2349 *~;
#X obj 1951 2241 +~ -0.13322;
#X obj 1986 2277 sig~ -0.13322;
#X obj 1985 1846 sig~ -0.00212;
#X obj 2012 1948 sig~ 0.20041;
#X obj 1951 2110 *~ -0.78522;
#X obj 2055 2110 *~ 1.0563;
#X obj 2136 2077 *~ 0.62766;
#X obj 2338 1884 hv.gt~;
#X obj 2328 1929 *~;
#X obj 2362 1978 hv.lte~;
#X obj 2328 2080 pow~ 3;
#X obj 2432 2080 pow~ 2;
#X obj 2328 2156 +~;
#X obj 2328 2204 +~;
#X obj 2328 2025 *~;
#X obj 2328 2316 hv.neq~;
#X obj 2275 2349 *~;
#X obj 2362 1846 sig~ 0.20041;
#X obj 2389 1948 sig~ 0.50062;
#X obj 2432 2110 *~ 1.2369;
#X obj 2513 2077 *~ 0.59147;
#X obj 2328 2241 +~ -0.13081;
#X obj 2363 2277 sig~ -0.13081;
#X obj 2677 1884 hv.gt~;
#X obj 2667 1929 *~;
#X obj 2701 1978 hv.lte~;
#X obj 2667 2080 pow~ 3;
#X obj 2771 2080 pow~ 2;
#X obj 2667 2156 +~;
#X obj 2667 2204 +~;
#X obj 2667 2025 *~;
#X obj 2667 2316 hv.neq~;
#X obj 2614 2349 *~;
#X obj 2701 1846 sig~ 0.50062;
#X obj 2728 1948 sig~ 0.89961;
#X obj 2771 2110 *~ -0.8872;
#X obj 2852 2077 *~ 1.6548;
#X obj 2667 2241 +~ -0.30825;
#X obj 2702 2277 sig~ -0.30825;
#X obj 3015 1990 *~;
#X obj 2927 1954 sig~ 0.70177;
#X obj 3037 1954 hv.gt~;
#X obj 3064 1922 sig~ 0.89961;
#X obj 2328 2110 *~ -1.0856;
#X obj 2667 2110 *~ 0.32873;
#X obj 2099 1731 *~ -0.5;
#X obj 2099 1768 *~;
#X obj 537 2662 hv.lte~;
#X obj 564 2630 sig~ -0.98338;
#X obj 515 2698 *~;
#X obj 455 2630 sig~ -0.32623;
#X obj 808 2598 hv.gt~;
#X obj 798 2643 *~;
#X obj 832 2560 sig~ -0.98338;
#X obj 832 2692 hv.lte~;
#X obj 859 2662 sig~ -0.50698;
#X obj 798 2794 pow~ 3;
#X obj 902 2794 pow~ 2;
#X obj 798 2824 *~ 0.078101;
#X obj 902 2824 *~ 0.23041;
#X obj 798 2870 +~;
#X obj 798 2918 +~;
#X obj 798 2955 +~ -0.18261;
#X obj 798 2739 *~;
#X obj 983 2791 *~ 0.2971;
#X obj 798 3030 hv.neq~;
#X obj 833 2991 sig~ -0.18261;
#X obj 745 3063 *~;
#X obj 1153 2598 hv.gt~;
#X obj 1143 2643 *~;
#X obj 1177 2692 hv.lte~;
#X obj 1143 2794 pow~ 3;
#X obj 1247 2794 pow~ 2;
#X obj 1143 2870 +~;
#X obj 1143 2918 +~;
#X obj 1143 2739 *~;
#X obj 1143 3030 hv.neq~;
#X obj 1090 3063 *~;
#X obj 1177 2560 sig~ -0.50698;
#X obj 1204 2662 sig~ -0.20759;
#X obj 1143 2824 *~ 0.42263;
#X obj 1247 2824 *~ 0.75441;
#X obj 1328 2791 *~ 0.56276;
#X obj 1143 2955 +~ -0.13772;
#X obj 1178 2991 sig~ -0.13772;
#X obj 1530 2598 hv.gt~;
#X obj 1520 2643 *~;
#X obj 1554 2692 hv.lte~;
#X obj 1520 2794 pow~ 3;
#X obj 1624 2794 pow~ 2;
#X obj 1520 2870 +~;
#X obj 1520 2918 +~;
#X obj 1520 2739 *~;
#X obj 1520 3030 hv.neq~;
#X obj 1467 3063 *~;
#X obj 1554 2560 sig~ -0.20759;
#X obj 1581 2662 sig~ -0.00212;
#X obj 1520 2824 *~ 0.92483;
#X obj 1705 2791 *~ 0.62768;
#X obj 1520 2955 +~ -0.13322;
#X obj 1555 2991 sig~ -0.13322;
#X obj 1624 2824 *~ 1.0672;
#X obj 1931 2590 hv.gt~;
#X obj 1921 2635 *~;
#X obj 1955 2684 hv.lte~;
#X obj 1921 2786 pow~ 3;
#X obj 2025 2786 pow~ 2;
#X obj 1921 2862 +~;
#X obj 1921 2910 +~;
#X obj 1921 2731 *~;
#X obj 1921 3022 hv.neq~;
#X obj 1868 3055 *~;
#X obj 1921 2947 +~ -0.13322;
#X obj 1956 2983 sig~ -0.13322;
#X obj 1955 2552 sig~ -0.00212;
#X obj 1982 2654 sig~ 0.20041;
#X obj 1921 2816 *~ -0.78522;
#X obj 2025 2816 *~ 1.0563;
#X obj 2106 2783 *~ 0.62766;
#X obj 2308 2590 hv.gt~;
#X obj 2298 2635 *~;
#X obj 2332 2684 hv.lte~;
#X obj 2298 2786 pow~ 3;
#X obj 2402 2786 pow~ 2;
#X obj 2298 2862 +~;
#X obj 2298 2910 +~;
#X obj 2298 2731 *~;
#X obj 2298 3022 hv.neq~;
#X obj 2245 3055 *~;
#X obj 2332 2552 sig~ 0.20041;
#X obj 2359 2654 sig~ 0.50062;
#X obj 2402 2816 *~ 1.2369;
#X obj 2483 2783 *~ 0.59147;
#X obj 2298 2947 +~ -0.13081;
#X obj 2333 2983 sig~ -0.13081;
#X obj 2647 2590 hv.gt~;
#X obj 2637 2635 *~;
#X obj 2671 2684 hv.lte~;
#X obj 2637 2786 pow~ 3;
#X obj 2741 2786 pow~ 2;
#X obj 2637 2862 +~;
#X obj 2637 2910 +~;
#X obj 2637 2731 *~;
#X obj 2637 3022 hv.neq~;
#X obj 2584 3055 *~;
#X obj 2671 2552 sig~ 0.50062;
#X obj 2698 2654 sig~ 0.89961;
#X obj 2741 2816 *~ -0.8872;
#X obj 2822 2783 *~ 1.6548;
#X obj 2637 2947 +~ -0.30825;
#X obj 2672 2983 sig~ -0.30825;
#X obj 2985 2696 *~;
#X obj 2901 2660 sig~ 0.70177;
#X obj 3007 2660 hv.gt~;
#X obj 3031 2598 sig~ 0.89961;
#X obj 2298 2816 *~ -1.0856;
#X obj 2637 2816 *~ 0.32873;
#X obj 2165 2486 *~ 1;
#X obj 529 3409 hv.lte~;
#X obj 556 3377 sig~ -0.98338;
#X obj 507 3445 *~;
#X obj 431 3377 sig~ -0.32623;
#X obj 800 3345 hv.gt~;
#X obj 790 3390 *~;
#X obj 824 3307 sig~ -0.98338;
#X obj 824 3439 hv.lte~;
#X obj 851 3409 sig~ -0.50698;
#X obj 790 3541 pow~ 3;
#X obj 894 3541 pow~ 2;
#X obj 790 3571 *~ 0.078101;
#X obj 894 3571 *~ 0.23041;
#X obj 790 3617 +~;
#X obj 790 3665 +~;
#X obj 790 3702 +~ -0.18261;
#X obj 790 3486 *~;
#X obj 975 3538 *~ 0.2971;
#X obj 790 3777 hv.neq~;
#X obj 825 3738 sig~ -0.18261;
#X obj 737 3810 *~;
#X obj 1145 3345 hv.gt~;
#X obj 1135 3390 *~;
#X obj 1169 3439 hv.lte~;
#X obj 1135 3541 pow~ 3;
#X obj 1239 3541 pow~ 2;
#X obj 1135 3617 +~;
#X obj 1135 3665 +~;
#X obj 1135 3486 *~;
#X obj 1135 3777 hv.neq~;
#X obj 1082 3810 *~;
#X obj 1169 3307 sig~ -0.50698;
#X obj 1196 3409 sig~ -0.20759;
#X obj 1135 3571 *~ 0.42263;
#X obj 1239 3571 *~ 0.75441;
#X obj 1320 3538 *~ 0.56276;
#X obj 1135 3702 +~ -0.13772;
#X obj 1170 3738 sig~ -0.13772;
#X obj 1522 3345 hv.gt~;
#X obj 1512 3390 *~;
#X obj 1546 3439 hv.lte~;
#X obj 1512 3541 pow~ 3;
#X obj 1616 3541 pow~ 2;
#X obj 1512 3617 +~;
#X obj 1512 3665 +~;
#X obj 1512 3486 *~;
#X obj 1512 3777 hv.neq~;
#X obj 1459 3810 *~;
#X obj 1546 3307 sig~ -0.20759;
#X obj 1573 3409 sig~ -0.00212;
#X obj 1512 3571 *~ 0.92483;
#X obj 1697 3538 *~ 0.62768;
#X obj 1512 3702 +~ -0.13322;
#X obj 1547 3738 sig~ -0.13322;
#X obj 1616 3571 *~ 1.0672;
#X obj 1923 3337 hv.gt~;
#X obj 1913 3382 *~;
#X obj 1947 3431 hv.lte~;
#X obj 1913 3533 pow~ 3;
#X obj 2017 3533 pow~ 2;
#X obj 1913 3609 +~;
#X obj 1913 3657 +~;
#X obj 1913 3478 *~;
#X obj 1913 3769 hv.neq~;
#X obj 1860 3802 *~;
#X obj 1913 3694 +~ -0.13322;
#X obj 1948 3730 sig~ -0.13322;
#X obj 1947 3299 sig~ -0.00212;
#X obj 1974 3401 sig~ 0.20041;
#X obj 1913 3563 *~ -0.78522;
#X obj 2017 3563 *~ 1.0563;
#X obj 2098 3530 *~ 0.62766;
#X obj 2300 3337 hv.gt~;
#X obj 2290 3382 *~;
#X obj 2324 3431 hv.lte~;
#X obj 2290 3533 pow~ 3;
#X obj 2394 3533 pow~ 2;
#X obj 2290 3609 +~;
#X obj 2290 3657 +~;
#X obj 2290 3478 *~;
#X obj 2290 3769 hv.neq~;
#X obj 2237 3802 *~;
#X obj 2324 3299 sig~ 0.20041;
#X obj 2351 3401 sig~ 0.50062;
#X obj 2394 3563 *~ 1.2369;
#X obj 2475 3530 *~ 0.59147;
#X obj 2290 3694 +~ -0.13081;
#X obj 2325 3730 sig~ -0.13081;
#X obj 2639 3337 hv.gt~;
#X obj 2629 3382 *~;
#X obj 2663 3431 hv.lte~;
#X obj 2629 3533 pow~ 3;
#X obj 2733 3533 pow~ 2;
#X obj 2629 3609 +~;
#X obj 2629 3657 +~;
#X obj 2629 3478 *~;
#X obj 2629 3769 hv.neq~;
#X obj 2576 3802 *~;
#X obj 2663 3299 sig~ 0.50062;
#X obj 2690 3401 sig~ 0.89961;
#X obj 2733 3563 *~ -0.8872;
#X obj 2814 3530 *~ 1.6548;
#X obj 2629 3694 +~ -0.30825;
#X obj 2664 3730 sig~ -0.30825;
#X obj 2977 3443 *~;
#X obj 2893 3407 sig~ 0.70177;
#X obj 2999 3407 hv.gt~;
#X obj 3026 3375 sig~ 0.89961;
#X obj 2290 3563 *~ -1.0856;
#X obj 2629 3563 *~ 0.32873;
#X obj 1512 3183 *~ 1;
#X obj 612 4106 *~ 1;
#X obj 278 5036 dac~;
#X obj 312 640 loadbang;
#X obj 334 4115 loadbang;
#X obj 282 567 hv.filter.gain~ peak 400 0.5;
#X obj 557 148 * 275;
#X obj 557 177 + 25;
#X obj 474 459 r Boost @hv_param 0 1 0;
#X obj 331 319 r Peak @hv_param 0 1 0;
#X obj 355 366 <= 0.5;
#X obj 434 366 > 0.5;
#X obj 331 430 * 2;
#X obj 411 397 spigot;
#X obj 331 397 spigot;
#X obj 411 430 - 0.5;
#X obj 411 492 * 2;
#X obj 331 459 * 450;
#X obj 331 484 + 400;
#X obj 411 520 + 850;
#X obj 411 459 * 1650;
#X obj 278 4456 hv.filter.gain~ peak 400 0.5;
#X obj 327 4333 r Voice @hv_param 0 1 0;
#X obj 327 4365 * 450;
#X obj 327 4393 + 400;
#X obj 278 4590 hv.filter.gain~ lowshelf 250 1;
#X obj 433 4494 r Bass @hv_param 0 1 0.5;
#X obj 427 4365 r Mid @hv_param 0 1 0.5;
#X obj 278 4723 hv.filter.gain~ highshelf 2000 1;
#X obj 446 4625 r Treble @hv_param 0 1 0.5;
#X obj 432 779 s gainStage1;
#X obj 527 779 s gainStage2;
#X obj 2020 921 r gainStage1;
#X obj 432 741 * 30;
#X obj 527 741 * 10;
#X obj 2169 1731 r gainStage2;
#X obj 511 648 r Gain @hv_param 0 1 0.2;
#X obj 312 670 f 0.2;
#X obj 282 753 *~ 0.2;
#X obj 312 719 * 100;
#X obj 557 14 r Cut @hv_param 0 1 0;
#X obj 359 4759 r Cabinet @hv_param 0 1 1;
#X obj 359 4789 * 3000;
#X obj 359 4817 + 3000;
#X obj 474 496 * 48;
#X obj 474 528 - 24;
#X obj 427 4394 * 48;
#X obj 427 4426 - 24;
#X obj 433 4525 * 48;
#X obj 433 4557 - 24;
#X obj 446 4657 * 48;
#X obj 446 4689 - 24;
#X text 218 120 INPUT;
#X text 206 275 BASS CUT;
#X text 225 566 BOOST;
#X text 189 788 LO CHANNEL;
#X text 2821 2143 LO CHANNEL;
#X text 1890 967 HI CHANNEL;
#X text 138 4290 POST DRIVE FILTER;
#X text 224 4455 MIDS;
#X text 224 4589 BASS;
#X text 210 4722 TREBLE;
#X text 193 4850 "CAB SIM";
#X text 219 4982 LEVEL;
#X text 142 154 Anti Alias filter \; set @ 1/4 sample rate;
#X text 147 209 Aggressive lowpass \; for nice sounds;
#X text 182 318 boost/cut filter \; 400hz - 2500hz;
#X text 474 396 This bit scales the 0-1 slider values so that 0 - 0.5 is 400-850 \; and 0.5 - 1 is 850 - 2500 \; for nicer slider control;
#X text 520 495 hv.filter.gain~ wants -24 to 24 decibel values \; rather than the more expected gain scaling;
#X text 628 778 Scaled multi stage gain;
#X text 2134 975 Each of these stages is exactly the same \; the scaling between them is slightly different \; and is inverted after the first!;
#X text 337 4088 CHANNEL SELECTOR;
#X text 492 4318 Mid frequency \; 400 - 850hz;
#X text 312 824 nice and simple hyperbolic tangent waveshaping for the low channel \; definitely don't look over there ------>;
#X text 2134 803 ---->;
#X text 2134 826 I told you not to look;
#X text 2134 849 ...;
#X text 2134 876 OK it looks like this because the Heavy compiler \; struggles with abstractions and encapsulations \; so in the interests of shareability i put this out literally \; patching conventions be damned;
#X text 782 58 POTENTIAL MODS \; \; 1) change the input filtering values \; 2) different overdrive algorithms \; 3) different tone stack values \; 4) muck around with "cab sim" lowpass filter \; 5) maybe add a "cab sim" mid scoop parameter for completeness. Personally I think you don't need this;
#X obj 372 4145 r Chan1 @hv_param 0 1 0;
#X obj 340 4023 loadbang;
#X obj 340 4053 f 0;
#X obj 378 4053 r Chan2 @hv_param 0 1 0;
#X obj 334 4145 f 1;
#X obj 557 84 f 1;
#X obj 557 117 -, f 8;
#X obj 557 45 t b f, f 9;
#X connect 0 0 13 0;
#X connect 1 0 2 1;
#X connect 2 0 461 1;
#X connect 2 0 461 0;
#X connect 3 0 4 0;
#X connect 4 0 8 0;
#X connect 5 0 6 0;
#X connect 6 0 7 0;
#X connect 7 0 4 1;
#X connect 8 0 9 0;
#X connect 9 0 464 0;
#X connect 10 0 11 0;
#X connect 11 0 2 0;
#X connect 12 0 480 0;
#X connect 13 0 12 0;
#X connect 14 0 12 0;
#X connect 15 0 17 1;
#X connect 16 0 15 1;
#X connect 17 0 236 0 32.................LF...nfA...iA...JX...bZ....;
#X connect 18 0 17 0;
#X connect 19 0 20 1;
#X connect 20 0 22 0;
#X connect 20 0 31 0;
#X connect 21 0 19 1;
#X connect 22 0 31 1;
#X connect 23 0 22 1;
#X connect 24 0 26 0;
#X connect 25 0 27 0;
#X connect 26 0 28 0;
#X connect 27 0 28 1;
#X connect 28 0 29 0;
#X connect 29 0 30 0;
#X connect 30 0 33 0;
#X connect 30 0 35 0;
#X connect 31 0 24 0;
#X connect 31 0 25 0;
#X connect 31 0 32 0;
#X connect 32 0 29 1;
#X connect 33 0 35 1;
#X connect 34 0 33 1;
#X connect 35 0 236 0 32.................c....PRA..PG....jT...nC....;
#X connect 36 0 37 1;
#X connect 37 0 38 0;
#X connect 37 0 43 0;
#X connect 38 0 43 1;
#X connect 39 0 48 0;
#X connect 40 0 49 0;
#X connect 41 0 42 0;
#X connect 42 0 51 0;
#X connect 43 0 39 0;
#X connect 43 0 40 0;
#X connect 43 0 50 0;
#X connect 44 0 45 1;
#X connect 45 0 236 0 32.................c....r7...PG....KO...nC....;
#X connect 46 0 36 1;
#X connect 47 0 38 1;
#X connect 48 0 41 0;
#X connect 49 0 41 1;
#X connect 50 0 42 1;
#X connect 51 0 44 0;
#X connect 51 0 45 0;
#X connect 52 0 44 1;
#X connect 53 0 54 1;
#X connect 54 0 55 0;
#X connect 54 0 60 0;
#X connect 55 0 60 1;
#X connect 56 0 65 0;
#X connect 57 0 69 0;
#X connect 58 0 59 0;
#X connect 59 0 67 0;
#X connect 60 0 56 0;
#X connect 60 0 57 0;
#X connect 60 0 66 0;
#X connect 61 0 62 1;
#X connect 62 0 236 0 32.................c....Hk...PG....RI...nC....;
#X connect 63 0 53 1;
#X connect 64 0 55 1;
#X connect 65 0 58 0;
#X connect 66 0 59 1;
#X connect 67 0 61 0;
#X connect 67 0 62 0;
#X connect 68 0 61 1;
#X connect 69 0 58 1;
#X connect 70 0 71 1;
#X connect 71 0 72 0;
#X connect 71 0 77 0;
#X connect 72 0 77 1;
#X connect 73 0 84 0;
#X connect 74 0 85 0;
#X connect 75 0 76 0;
#X connect 76 0 80 0;
#X connect 77 0 73 0;
#X connect 77 0 74 0;
#X connect 77 0 86 0;
#X connect 78 0 79 1;
#X connect 79 0 236 0 32.................j....DL....I....AC...HD....;
#X connect 80 0 78 0;
#X connect 80 0 79 0;
#X connect 81 0 78 1;
#X connect 82 0 70 1;
#X connect 83 0 72 1;
#X connect 84 0 75 0;
#X connect 85 0 75 1;
#X connect 86 0 76 1;
#X connect 87 0 88 1;
#X connect 88 0 89 0;
#X connect 88 0 94 0;
#X connect 89 0 94 1;
#X connect 90 0 123 0;
#X connect 91 0 99 0;
#X connect 92 0 93 0;
#X connect 93 0 101 0;
#X connect 94 0 90 0;
#X connect 94 0 91 0;
#X connect 94 0 100 0;
#X connect 95 0 96 1;
#X connect 96 0 236 0 32.................l....jz+++uI....I8+++KD....;
#X connect 97 0 87 1;
#X connect 98 0 89 1;
#X connect 99 0 92 1;
#X connect 100 0 93 1;
#X connect 101 0 95 0;
#X connect 101 0 96 0;
#X connect 102 0 95 1;
#X connect 103 0 104 1;
#X connect 104 0 105 0;
#X connect 104 0 110 0;
#X connect 105 0 110 1;
#X connect 106 0 124 0;
#X connect 107 0 115 0;
#X connect 108 0 109 0;
#X connect 109 0 117 0;
#X connect 110 0 106 0;
#X connect 110 0 107 0;
#X connect 110 0 116 0;
#X connect 111 0 112 1;
#X connect 112 0 236 0 32.................m....Xe++++I....12+++KD....;
#X connect 113 0 103 1;
#X connect 114 0 105 1;
#X connect 115 0 108 1;
#X connect 116 0 109 1;
#X connect 117 0 111 0;
#X connect 117 0 112 0;
#X connect 118 0 111 1;
#X connect 119 0 236 0 32.................NF...TF+++uiA...kw+++mZ....;
#X connect 120 0 119 0;
#X connect 121 0 119 1;
#X connect 122 0 121 1;
#X connect 123 0 92 0;
#X connect 124 0 108 0;
#X connect 125 0 15 0 32.................YA...bm9++eV....2o+++qP....;
#X connect 125 0 19 0 32.................WA...X39+++U....Ft+++qL....;
#X connect 125 0 20 0 32.................cA...v29++eW....7s+++eO....;
#X connect 125 0 36 0 32.................WA...7M++++U....ey+++qL....;
#X connect 125 0 53 0 32.................WA...fk++++U....X4+++qL....;
#X connect 125 0 71 0 32.................3A...78+++Od....e+++++N....;
#X connect 125 0 70 0 32.................gA...j9+++eX....o++++KL....;
#X connect 125 0 88 0 32.................PA...bU....T....WE...7N....;
#X connect 125 0 87 0 32.................IA...DV...PR....gE...HL....;
#X connect 125 0 104 0 32.................PA...np....T....pJ...7N....;
#X connect 125 0 103 0 32.................IA...Pq...PR....zJ...HL....;
#X connect 125 0 121 0 32.................iA...vAA..vX....bP...fP....;
#X connect 125 0 37 0 32.................WA...TM++++U....Uy+++eO....;
#X connect 125 0 54 0 32.................YA...3j+++eV....N4+++eO....;
#X connect 126 0 128 1;
#X connect 127 0 126 1;
#X connect 128 0 348 0 48......................vg.........bH...DY....UF...QF...PkA..v1A...;
#X connect 129 0 128 0;
#X connect 130 0 131 1;
#X connect 131 0 133 0;
#X connect 131 0 142 0;
#X connect 132 0 130 1;
#X connect 133 0 142 1;
#X connect 134 0 133 1;
#X connect 135 0 137 0;
#X connect 136 0 138 0;
#X connect 137 0 139 0;
#X connect 138 0 139 1;
#X connect 139 0 140 0;
#X connect 140 0 141 0;
#X connect 141 0 144 0;
#X connect 141 0 146 0;
#X connect 142 0 135 0;
#X connect 142 0 136 0;
#X connect 142 0 143 0;
#X connect 143 0 140 1;
#X connect 144 0 146 1;
#X connect 145 0 144 1;
#X connect 146 0 348 0 32.................i....3VA..vH....tU...3F....;
#X connect 147 0 148 1;
#X connect 148 0 149 0;
#X connect 148 0 154 0;
#X connect 149 0 154 1;
#X connect 150 0 159 0;
#X connect 151 0 160 0;
#X connect 152 0 153 0;
#X connect 153 0 162 0;
#X connect 154 0 150 0;
#X connect 154 0 151 0;
#X connect 154 0 161 0;
#X connect 155 0 156 1;
#X connect 156 0 348 0 32.................i....TAA..vH....UP...3F....;
#X connect 157 0 147 1;
#X connect 158 0 149 1;
#X connect 159 0 152 0;
#X connect 160 0 152 1;
#X connect 161 0 153 1;
#X connect 162 0 155 0;
#X connect 162 0 156 0;
#X connect 163 0 155 1;
#X connect 164 0 165 1;
#X connect 165 0 166 0;
#X connect 165 0 171 0;
#X connect 166 0 171 1;
#X connect 167 0 176 0;
#X connect 168 0 180 0;
#X connect 169 0 170 0;
#X connect 170 0 178 0;
#X connect 171 0 167 0;
#X connect 171 0 168 0;
#X connect 171 0 177 0;
#X connect 172 0 173 1;
#X connect 173 0 348 0 32.................j....vo....I....bJ...3F....;
#X connect 174 0 164 1;
#X connect 175 0 166 1;
#X connect 176 0 169 0;
#X connect 177 0 170 1;
#X connect 178 0 172 0;
#X connect 178 0 173 0;
#X connect 179 0 172 1;
#X connect 180 0 169 1;
#X connect 181 0 182 1;
#X connect 182 0 183 0;
#X connect 182 0 188 0;
#X connect 183 0 188 1;
#X connect 184 0 195 0;
#X connect 185 0 196 0;
#X connect 186 0 187 0;
#X connect 187 0 191 0;
#X connect 188 0 184 0;
#X connect 188 0 185 0;
#X connect 188 0 197 0;
#X connect 189 0 190 1;
#X connect 190 0 348 0 32.................r....rP....K....KD...XG....;
#X connect 191 0 189 0;
#X connect 191 0 190 0;
#X connect 192 0 189 1;
#X connect 193 0 181 1;
#X connect 194 0 183 1;
#X connect 195 0 186 0;
#X connect 196 0 186 1;
#X connect 197 0 187 1;
#X connect 198 0 199 1;
#X connect 199 0 200 0;
#X connect 199 0 205 0;
#X connect 200 0 205 1;
#X connect 201 0 234 0;
#X connect 202 0 210 0;
#X connect 203 0 204 0;
#X connect 204 0 212 0;
#X connect 205 0 201 0;
#X connect 205 0 202 0;
#X connect 205 0 211 0;
#X connect 206 0 207 1;
#X connect 207 0 348 0 32.................r....L4+++OK....S9+++aG....;
#X connect 208 0 198 1;
#X connect 209 0 200 1;
#X connect 210 0 203 1;
#X connect 211 0 204 1;
#X connect 212 0 206 0;
#X connect 212 0 207 0;
#X connect 213 0 206 1;
#X connect 214 0 215 1;
#X connect 215 0 216 0;
#X connect 215 0 221 0;
#X connect 216 0 221 1;
#X connect 217 0 235 0;
#X connect 218 0 226 0;
#X connect 219 0 220 0;
#X connect 220 0 228 0;
#X connect 221 0 217 0;
#X connect 221 0 218 0;
#X connect 221 0 227 0;
#X connect 222 0 223 1;
#X connect 223 0 348 0 32.................r.....j+++OK.....4+++aG....;
#X connect 224 0 214 1;
#X connect 225 0 216 1;
#X connect 226 0 219 1;
#X connect 227 0 220 1;
#X connect 228 0 222 0;
#X connect 228 0 223 0;
#X connect 229 0 222 1;
#X connect 230 0 348 0 32.................TF...7J+++OkA...ux+++2c....;
#X connect 231 0 230 0;
#X connect 232 0 230 1;
#X connect 233 0 232 1;
#X connect 234 0 203 0;
#X connect 235 0 219 0;
#X connect 236 0 237 0;
#X connect 237 0 181 0 32.................f....b2+++OH....28+++GF....;
#X connect 237 0 182 0 32.................u....z1++++K....s8+++6H....;
#X connect 237 0 199 0 32.................u....TN...vK....kC...3H....;
#X connect 237 0 215 0 32.................u....fi...vK....3H...3H....;
#X connect 237 0 165 0 32.................c....vc+++eG....b2+++aI....;
#X connect 237 0 126 0 32.................b....Tf9++OG....En+++mJ....;
#X connect 237 0 164 0 32.................d....Xd+++uG....l2+++mF....;
#X connect 237 0 131 0 32.................c....nv9++eG....Jr+++aI....;
#X connect 237 0 130 0 32.................b....Pw9++OG....Tr+++mF....;
#X connect 237 0 148 0 48.................d....jw+++uG....Y7+++yA...vX7+++b....LF+++uk....;
#X connect 237 0 147 0 32.................b....zF+++OG....sw+++mF....;
#X connect 237 0 214 0 32.................v....Hj....L....BI...DF....;
#X connect 237 0 198 0 32.................v....7N....L....uC...DF....;
#X connect 237 0 232 0 48.................u.....r...vK.....K....C...fpC...v....n5...vo....;
#X connect 238 0 240 1;
#X connect 239 0 238 1;
#X connect 240 0 459 0 48.................eF...vt...vmA...rK...DZ...P4C...gF...T9...fzA...;
#X connect 241 0 240 0;
#X connect 242 0 243 1;
#X connect 243 0 245 0;
#X connect 243 0 254 0;
#X connect 244 0 242 1;
#X connect 245 0 254 1;
#X connect 246 0 245 1;
#X connect 247 0 249 0;
#X connect 248 0 250 0;
#X connect 249 0 251 0;
#X connect 250 0 251 1;
#X connect 251 0 252 0;
#X connect 252 0 253 0;
#X connect 253 0 256 0;
#X connect 253 0 258 0;
#X connect 254 0 247 0;
#X connect 254 0 248 0;
#X connect 254 0 255 0;
#X connect 255 0 252 1;
#X connect 256 0 258 1;
#X connect 257 0 256 1;
#X connect 258 0 459 0 32.................z....7u....M....+K...TF....;
#X connect 259 0 260 1;
#X connect 260 0 261 0;
#X connect 260 0 266 0;
#X connect 261 0 266 1;
#X connect 262 0 271 0;
#X connect 263 0 272 0;
#X connect 264 0 265 0;
#X connect 265 0 274 0;
#X connect 266 0 262 0;
#X connect 266 0 263 0;
#X connect 266 0 273 0;
#X connect 267 0 268 1;
#X connect 268 0 459 0 32.................y....XZ...vL....lF...TF....;
#X connect 269 0 259 1;
#X connect 270 0 261 1;
#X connect 271 0 264 0;
#X connect 272 0 264 1;
#X connect 273 0 265 1;
#X connect 274 0 267 0;
#X connect 274 0 268 0;
#X connect 275 0 267 1;
#X connect 276 0 277 1;
#X connect 277 0 278 0;
#X connect 277 0 283 0;
#X connect 278 0 283 1;
#X connect 279 0 288 0;
#X connect 280 0 292 0;
#X connect 281 0 282 0;
#X connect 282 0 290 0;
#X connect 283 0 279 0;
#X connect 283 0 280 0;
#X connect 283 0 289 0;
#X connect 284 0 285 1;
#X connect 285 0 459 0 32.................y....zB...vL....s....TF....;
#X connect 286 0 276 1;
#X connect 287 0 278 1;
#X connect 288 0 281 0;
#X connect 289 0 282 1;
#X connect 290 0 284 0;
#X connect 290 0 285 0;
#X connect 291 0 284 1;
#X connect 292 0 281 1;
#X connect 293 0 294 1;
#X connect 294 0 295 0;
#X connect 294 0 300 0;
#X connect 295 0 300 1;
#X connect 296 0 307 0;
#X connect 297 0 308 0;
#X connect 298 0 299 0;
#X connect 299 0 303 0;
#X connect 300 0 296 0;
#X connect 300 0 297 0;
#X connect 300 0 309 0;
#X connect 301 0 302 1;
#X connect 302 0 459 0 32.................3....zo+++ON....c5+++2F....;
#X connect 303 0 301 0;
#X connect 303 0 302 0;
#X connect 304 0 301 1;
#X connect 305 0 293 1;
#X connect 306 0 295 1;
#X connect 307 0 298 0;
#X connect 308 0 298 1;
#X connect 309 0 299 1;
#X connect 310 0 311 1;
#X connect 311 0 312 0;
#X connect 311 0 317 0;
#X connect 312 0 317 1;
#X connect 313 0 346 0;
#X connect 314 0 322 0;
#X connect 315 0 316 0;
#X connect 316 0 324 0;
#X connect 317 0 313 0;
#X connect 317 0 314 0;
#X connect 317 0 323 0;
#X connect 318 0 319 1;
#X connect 319 0 459 0 32.................1....PR+++uM....jz+++2F....;
#X connect 320 0 310 1;
#X connect 321 0 312 1;
#X connect 322 0 315 1;
#X connect 323 0 316 1;
#X connect 324 0 318 0;
#X connect 324 0 319 0;
#X connect 325 0 318 1;
#X connect 326 0 327 1;
#X connect 327 0 328 0;
#X connect 327 0 333 0;
#X connect 328 0 333 1;
#X connect 329 0 347 0;
#X connect 330 0 338 0;
#X connect 331 0 332 0;
#X connect 332 0 340 0;
#X connect 333 0 329 0;
#X connect 333 0 330 0;
#X connect 333 0 339 0;
#X connect 334 0 335 1;
#X connect 335 0 459 0 32.................3....D89++ON....Qu+++2F....;
#X connect 336 0 326 1;
#X connect 337 0 328 1;
#X connect 338 0 331 1;
#X connect 339 0 332 1;
#X connect 340 0 334 0;
#X connect 340 0 335 0;
#X connect 341 0 334 1;
#X connect 342 0 459 0 32.................fF....j9++OnA....o+++Sc....;
#X connect 343 0 342 0;
#X connect 344 0 342 1;
#X connect 345 0 344 1;
#X connect 346 0 315 0;
#X connect 347 0 331 0;
#X connect 348 0 294 0 32.................P....zv+++OD....M7+++KH....;
#X connect 348 0 242 0 32.................O....Pq9+++C....zp+++2E....;
#X connect 348 0 259 0 32.................O....z.++++C....Mv+++2E....;
#X connect 348 0 293 0 32.................O....bw++++C....W7+++WE....;
#X connect 348 0 276 0 32.................P....XX+++OD....F1+++2E....;
#X connect 348 0 277 0 48.................Q....3q+++eD....95++++.....e8+++O....vW+++uh....;
#X connect 348 0 243 0 48.................O....ji++++C....43++++....fp5+++O....np9++uh....;
#X connect 348 0 238 0 48.................Q....LM+++eD....Sy+++6....Po4+++N....TZ9++em....;
#X connect 348 0 260 0 48.................O....bR++++C....mz+++CA...v.7+++P....L.+++uh....;
#X connect 348 0 311 0 32.................Q....TH...PD....EB...HH....;
#X connect 348 0 326 0 32.................Q....Hd...PD....hG...TE....;
#X connect 348 0 310 0 32.................P....7H....D....OB...TE....;
#X connect 348 0 327 0 48.................P....rS....D....6D...7.....1A...O....fc...ff....;
#X connect 348 0 344 0 48.................Q....fm...PD....3I...DA...fRC...Q....nz...vl....;
#X connect 349 0 351 1;
#X connect 350 0 349 1;
#X connect 351 0 460 0 32.................7F...jF....uA...oA...Hn....;
#X connect 352 0 351 0;
#X connect 353 0 354 1;
#X connect 354 0 356 0;
#X connect 354 0 365 0;
#X connect 355 0 353 1;
#X connect 356 0 365 1;
#X connect 357 0 356 1;
#X connect 358 0 360 0;
#X connect 359 0 361 0;
#X connect 360 0 362 0;
#X connect 361 0 362 1;
#X connect 362 0 363 0;
#X connect 363 0 364 0;
#X connect 364 0 367 0;
#X connect 364 0 369 0;
#X connect 365 0 358 0;
#X connect 365 0 359 0;
#X connect 365 0 366 0;
#X connect 366 0 363 1;
#X connect 367 0 369 1;
#X connect 368 0 367 1;
#X connect 369 0 460 0 32.................NA...rw+++uS....a7+++6F....;
#X connect 370 0 371 1;
#X connect 371 0 372 0;
#X connect 371 0 377 0;
#X connect 372 0 377 1;
#X connect 373 0 382 0;
#X connect 374 0 383 0;
#X connect 375 0 376 0;
#X connect 376 0 385 0;
#X connect 377 0 373 0;
#X connect 377 0 374 0;
#X connect 377 0 384 0;
#X connect 378 0 379 1;
#X connect 379 0 460 0 32.................MA...Hb+++eS....B2+++6F....;
#X connect 380 0 370 1;
#X connect 381 0 372 1;
#X connect 382 0 375 0;
#X connect 383 0 375 1;
#X connect 384 0 376 1;
#X connect 385 0 378 0;
#X connect 385 0 379 0;
#X connect 386 0 378 1;
#X connect 387 0 388 1;
#X connect 388 0 389 0;
#X connect 388 0 394 0;
#X connect 389 0 394 1;
#X connect 390 0 399 0;
#X connect 391 0 403 0;
#X connect 392 0 393 0;
#X connect 393 0 401 0;
#X connect 394 0 390 0;
#X connect 394 0 391 0;
#X connect 394 0 400 0;
#X connect 395 0 396 1;
#X connect 396 0 460 0 32.................MA...jD+++eS....Iw+++6F....;
#X connect 397 0 387 1;
#X connect 398 0 389 1;
#X connect 399 0 392 0;
#X connect 400 0 393 1;
#X connect 401 0 395 0;
#X connect 401 0 396 0;
#X connect 402 0 395 1;
#X connect 403 0 392 1;
#X connect 404 0 405 1;
#X connect 405 0 406 0;
#X connect 405 0 411 0;
#X connect 406 0 411 1;
#X connect 407 0 418 0;
#X connect 408 0 419 0;
#X connect 409 0 410 0;
#X connect 410 0 414 0;
#X connect 411 0 407 0;
#X connect 411 0 408 0;
#X connect 411 0 420 0;
#X connect 412 0 413 1;
#X connect 413 0 460 0 32.................VA...fq9++uU....3p+++aG....;
#X connect 414 0 412 0;
#X connect 414 0 413 0;
#X connect 415 0 412 1;
#X connect 416 0 404 1;
#X connect 417 0 406 1;
#X connect 418 0 409 0;
#X connect 419 0 409 1;
#X connect 420 0 410 1;
#X connect 421 0 422 1;
#X connect 422 0 423 0;
#X connect 422 0 428 0;
#X connect 423 0 428 1;
#X connect 424 0 457 0;
#X connect 425 0 433 0;
#X connect 426 0 427 0;
#X connect 427 0 435 0;
#X connect 428 0 424 0;
#X connect 428 0 425 0;
#X connect 428 0 434 0;
#X connect 429 0 430 1;
#X connect 430 0 460 0 32.................WA...7S9+++U....+j+++aG....;
#X connect 431 0 421 1;
#X connect 432 0 423 1;
#X connect 433 0 426 1;
#X connect 434 0 427 1;
#X connect 435 0 429 0;
#X connect 435 0 430 0;
#X connect 436 0 429 1;
#X connect 437 0 438 1;
#X connect 438 0 439 0;
#X connect 438 0 444 0;
#X connect 439 0 444 1;
#X connect 440 0 458 0;
#X connect 441 0 449 0;
#X connect 442 0 443 0;
#X connect 443 0 451 0;
#X connect 444 0 440 0;
#X connect 444 0 441 0;
#X connect 444 0 450 0;
#X connect 445 0 446 1;
#X connect 446 0 460 0 32.................VA...v98++uU....re+++aG....;
#X connect 447 0 437 1;
#X connect 448 0 439 1;
#X connect 449 0 442 1;
#X connect 450 0 443 1;
#X connect 451 0 445 0;
#X connect 451 0 446 0;
#X connect 452 0 445 1;
#X connect 453 0 460 0 32.................7F...rk8++OuA...aY+++2c....;
#X connect 454 0 453 0;
#X connect 455 0 453 1;
#X connect 456 0 455 1;
#X connect 457 0 426 0;
#X connect 458 0 442 0;
#X connect 459 0 353 0 32.................1....jS+++uM....4z++++H....;
#X connect 459 0 370 0 32.................1....Ho+++uM....R5++++H....;
#X connect 459 0 387 0 32.................HA...n.....R....J....7H....;
#X connect 459 0 388 0 32.................dA........fW.........vK....;
#X connect 459 0 421 0 32.................y....Pw...vL....TL...bH....;
#X connect 459 0 371 0 32.................3....fn+++ON....H5+++yK....;
#X connect 459 0 354 0 32.................0....7R+++eM....uz+++yK....;
#X connect 459 0 349 0 32.................0....nB+++eM....pv++++L....;
#X connect 459 0 404 0 32.................z....rY....M....aF...bH....;
#X connect 459 0 438 0 32.................z....zEA...M....cQ...PK....;
#X connect 459 0 437 0 32.................z....bFA...M....mQ...bH....;
#X connect 459 0 422 0 32.................x....nv...fL....JL...PK....;
#X connect 459 0 405 0 32.................z....DY....M....QF...PK....;
#X connect 459 0 455 0 32.................x....7bA..fL....OW...zL....;
#X connect 460 0 14 0;
#X connect 462 0 496 0;
#X connect 463 0 542 0;
#X connect 464 0 125 0 32.................e....7pA..vG....uZ...3W....;
#X connect 464 0 497 0;
#X connect 465 0 466 0;
#X connect 466 0 9 1;
#X connect 467 0 503 0;
#X connect 468 0 473 0;
#X connect 468 0 469 0;
#X connect 468 0 472 0;
#X connect 468 0 470 0;
#X connect 469 0 473 1;
#X connect 470 0 472 1;
#X connect 471 0 476 0;
#X connect 472 0 474 0;
#X connect 473 0 471 0;
#X connect 474 0 479 0;
#X connect 475 0 478 0;
#X connect 476 0 477 0;
#X connect 477 0 464 1;
#X connect 478 0 464 1;
#X connect 479 0 475 0;
#X connect 480 0 484 0;
#X connect 481 0 482 0;
#X connect 482 0 483 0;
#X connect 483 0 480 1;
#X connect 484 0 487 0;
#X connect 485 0 507 0;
#X connect 486 0 505 0;
#X connect 487 0 10 0;
#X connect 488 0 509 0;
#X connect 491 0 125 1;
#X connect 492 0 489 0;
#X connect 493 0 490 0;
#X connect 494 0 237 1;
#X connect 495 0 492 0;
#X connect 495 0 493 0;
#X connect 495 0 498 0;
#X connect 496 0 498 0;
#X connect 496 0 492 0;
#X connect 496 0 493 0;
#X connect 497 0 0 0;
#X connect 498 0 497 1;
#X connect 499 0 545 0;
#X connect 500 0 501 0;
#X connect 501 0 502 0;
#X connect 502 0 10 1;
#X connect 503 0 504 0;
#X connect 504 0 464 3;
#X connect 505 0 506 0;
#X connect 506 0 480 3;
#X connect 507 0 508 0;
#X connect 508 0 484 3;
#X connect 509 0 510 0;
#X connect 510 0 487 3;
#X connect 538 0 13 1;
#X connect 539 0 540 0;
#X connect 540 0 14 1;
#X connect 541 0 14 1;
#X connect 542 0 13 1;
#X connect 543 0 544 0;
#X connect 544 0 465 0;
#X connect 545 0 543 0;
#X connect 545 1 544 1;
